<?xml version="1.0" encoding="UTF-8"?>
<svg xmlns="http://www.w3.org/2000/svg" width="800" height="500" viewBox="0 0 800 500" role="img" aria-label="Istanbul">
  <defs>
    <linearGradient id="sky" x1="12%" y1="0%" x2="88%" y2="100%">
      <stop offset="0%" stop-color="#f6f5f7"/>
      <stop offset="48%" stop-color="#e3e0e8"/>
      <stop offset="100%" stop-color="#8b80b3" stop-opacity="0.72"/>
    </linearGradient>
    <linearGradient id="ground" x1="0%" y1="0%" x2="100%" y2="100%">
      <stop offset="0%" stop-color="#e3e0e8"/>
      <stop offset="65%" stop-color="#8b80b3" stop-opacity="0.76"/>
      <stop offset="100%" stop-color="#33303f" stop-opacity="0.22"/>
    </linearGradient>
    <radialGradient id="glow" cx="50%" cy="50%" r="60%">
      <stop offset="0%" stop-color="#8b80b3" stop-opacity="0.46"/>
      <stop offset="100%" stop-color="#8b80b3" stop-opacity="0"/>
    </radialGradient>
    <linearGradient id="wash" x1="0%" y1="100%" x2="100%" y2="0%">
      <stop offset="0%" stop-color="#33303f" stop-opacity="0.24"/>
      <stop offset="46%" stop-color="#8b80b3" stop-opacity="0.12"/>
      <stop offset="100%" stop-color="#ffffff" stop-opacity="0.3"/>
    </linearGradient>
    <filter id="soft" x="-20%" y="-20%" width="140%" height="140%">
      <feGaussianBlur stdDeviation="18"/>
    </filter>
    <filter id="grain" x="0" y="0" width="100%" height="100%">
      <feTurbulence type="fractalNoise" baseFrequency="0.82" numOctaves="2" seed="593"/>
      <feColorMatrix type="saturate" values="0"/>
      <feComponentTransfer>
        <feFuncA type="table" tableValues="0 0.08"/>
      </feComponentTransfer>
    </filter>
  </defs>
  <rect width="100%" height="100%" fill="url(#sky)"/>
  <circle cx="533" cy="129" r="140" fill="url(#glow)" filter="url(#soft)"/>
  <path d="M0 222 C 144 105, 272 339, 400 83 S 656 339, 800 159 L 800 500 L 0 500 Z" fill="url(#ground)" opacity="0.82"/>
  <path d="M0 360 C 176 310, 360 400, 536 340 S 704 300, 800 350 L 800 500 L 0 500 Z" fill="#33303f" opacity="0.1"/>
  <rect width="100%" height="100%" fill="url(#wash)" opacity="0.72"/>
  <rect width="100%" height="100%" filter="url(#grain)" opacity="1"/>
  <rect x="32" y="25" width="736" height="450" rx="18" fill="none" stroke="#ffffff" stroke-opacity="0.22" stroke-width="2"/>
</svg>